<svg width="75" height="15" viewBox="0 0 75 15" fill="none" xmlns="http://www.w3.org/2000/svg"><path opacity=".04" fill-rule="evenodd" clip-rule="evenodd" d="M15.888 15c.268-.098.54-.198.816-.301l1.326-.496C25.23 11.51 29.735 10.5 37.5 10.5c7.703 0 11.521.916 18.471 3.696.717.287 1.402.555 2.063.804h4.669c-1.883-.548-3.854-1.268-6.175-2.196C49.416 9.959 45.422 9 37.5 9c-7.97 0-12.641 1.048-19.995 3.797-.128.048-1.055.396-1.325.496-1.856.693-3.495 1.257-5.043 1.707h4.751zm0-15C9.943 2.169 6.058 3 0 3V1.5c4.308 0 7.464-.43 11.137-1.5h4.751zm42.146 0C63.93 2.225 67.877 3 75 3V1.5c-5.132 0-8.54-.407-12.297-1.5h-4.669zM0 10.5c6.33 0 10.289-.908 16.704-3.301l1.326-.496C25.23 4.01 29.735 3 37.5 3c7.703 0 11.521.916 18.471 3.696C63.084 9.541 67.078 10.5 75 10.5V9c-7.703 0-11.521-.916-18.471-3.696C49.416 2.459 45.422 1.5 37.5 1.5c-7.97 0-12.641 1.048-19.995 3.797l-1.325.496C9.918 8.13 6.123 9 0 9v1.5z" fill="#FFF"/></svg>